<svg width="50" height="49" viewBox="0 0 50 49" fill="none" xmlns="http://www.w3.org/2000/svg">
<g clip-path="url(#clip0_839_1603)">
<path d="M35.4767 32.2598C40.7788 26.6636 40.6874 17.8281 35.2029 12.3435C29.6257 6.76621 20.583 6.76621 15.0056 12.3435C9.52109 17.8281 9.42987 26.6636 14.732 32.2598C16.8977 28.8134 20.7335 26.5227 25.1043 26.5227C29.4751 26.5227 33.3109 28.8134 35.4767 32.2598ZM25.1043 48.4101L12.1203 35.4262C4.94947 28.2552 4.94947 16.6291 12.1203 9.45822C19.2912 2.28736 30.9173 2.28736 38.0884 9.45822C45.2592 16.6291 45.2592 28.2552 38.0884 35.4262L25.1043 48.4101Z" fill="#2196F3"/>
<path d="M36 33.7889C36 34.4364 27.0619 43 26.3868 43H25.6984C25.0234 43 14 34.4364 14 33.7889V21.4668C14 21.105 14.1741 20.7635 14.4719 20.5414L24.2497 13.2469C24.691 12.9177 25.309 12.9177 25.7503 13.2469L35.5281 20.5414C35.8258 20.7635 36 21.105 36 21.4668V33.7889Z" fill="#2196F3"/>
</g>
<defs>
<clipPath id="clip0_839_1603">
<rect width="48.9656" height="48.9656" fill="white" transform="translate(0.621094)"/>
</clipPath>
</defs>
</svg>
