<svg width="24" height="24" viewBox="0 0 24 24" fill="none" xmlns="http://www.w3.org/2000/svg">
<path d="M23.5 6C23.5 5.73478 23.3946 5.48043 23.2071 5.29289C23.0196 5.10536 22.7652 5 22.5 5H12C11.7348 5 11.4804 5.10536 11.2929 5.29289C11.1054 5.48043 11 5.73478 11 6C11 6.26522 11.1054 6.51957 11.2929 6.70711C11.4804 6.89464 11.7348 7 12 7H22.5C22.7652 7 23.0196 6.89464 23.2071 6.70711C23.3946 6.51957 23.5 6.26522 23.5 6Z" fill="white"/>
<path d="M1.5 7.00001H4.175C4.4109 7.66722 4.87507 8.22956 5.48548 8.58764C6.09589 8.94571 6.81324 9.07647 7.51073 8.9568C8.20823 8.83713 8.84096 8.47474 9.2971 7.93367C9.75325 7.3926 10.0034 6.70769 10.0034 6.00001C10.0034 5.29232 9.75325 4.60741 9.2971 4.06635C8.84096 3.52528 8.20823 3.16288 7.51073 3.04321C6.81324 2.92354 6.09589 3.0543 5.48548 3.41237C4.87507 3.77045 4.4109 4.33279 4.175 5.00001H1.5C1.23478 5.00001 0.98043 5.10536 0.792893 5.2929C0.605357 5.48044 0.5 5.73479 0.5 6.00001C0.5 6.26522 0.605357 6.51958 0.792893 6.70711C0.98043 6.89465 1.23478 7.00001 1.5 7.00001ZM7 5.00001C7.19778 5.00001 7.39112 5.05866 7.55557 5.16854C7.72002 5.27842 7.84819 5.4346 7.92388 5.61732C7.99957 5.80005 8.01937 6.00112 7.98079 6.1951C7.9422 6.38908 7.84696 6.56726 7.70711 6.70711C7.56725 6.84697 7.38907 6.94221 7.19509 6.98079C7.00111 7.01938 6.80004 6.99957 6.61732 6.92389C6.43459 6.8482 6.27841 6.72003 6.16853 6.55558C6.05865 6.39113 6 6.19779 6 6.00001C6 5.73479 6.10536 5.48044 6.29289 5.2929C6.48043 5.10536 6.73478 5.00001 7 5.00001Z" fill="white"/>
<path d="M22.4995 11H18.8245C18.5886 10.3328 18.1245 9.77045 17.514 9.41237C16.9036 9.0543 16.1863 8.92354 15.4888 9.04321C14.7913 9.16288 14.1586 9.52528 13.7024 10.0663C13.2463 10.6074 12.9961 11.2923 12.9961 12C12.9961 12.7077 13.2463 13.3926 13.7024 13.9337C14.1586 14.4747 14.7913 14.8371 15.4888 14.9568C16.1863 15.0765 16.9036 14.9457 17.514 14.5876C18.1245 14.2296 18.5886 13.6672 18.8245 13H22.4995C22.7647 13 23.0191 12.8946 23.2066 12.7071C23.3942 12.5196 23.4995 12.2652 23.4995 12C23.4995 11.7348 23.3942 11.4804 23.2066 11.2929C23.0191 11.1054 22.7647 11 22.4995 11ZM15.9995 13C15.8017 13 15.6084 12.9414 15.444 12.8315C15.2795 12.7216 15.1513 12.5654 15.0756 12.3827C15 12.2 14.9802 11.9989 15.0187 11.8049C15.0573 11.6109 15.1526 11.4328 15.2924 11.2929C15.4323 11.153 15.6105 11.0578 15.8044 11.0192C15.9984 10.9806 16.1995 11.0004 16.3822 11.0761C16.5649 11.1518 16.7211 11.28 16.831 11.4444C16.9409 11.6089 16.9995 11.8022 16.9995 12C16.9995 12.2652 16.8942 12.5196 16.7066 12.7071C16.5191 12.8946 16.2647 13 15.9995 13Z" fill="white"/>
<path d="M11 11H1.5C1.23478 11 0.98043 11.1054 0.792893 11.2929C0.605357 11.4804 0.5 11.7348 0.5 12C0.5 12.2652 0.605357 12.5196 0.792893 12.7071C0.98043 12.8946 1.23478 13 1.5 13H11C11.2652 13 11.5196 12.8946 11.7071 12.7071C11.8946 12.5196 12 12.2652 12 12C12 11.7348 11.8946 11.4804 11.7071 11.2929C11.5196 11.1054 11.2652 11 11 11Z" fill="white"/>
<path d="M22.5 17H14C13.7348 17 13.4804 17.1054 13.2929 17.2929C13.1054 17.4804 13 17.7348 13 18C13 18.2652 13.1054 18.5196 13.2929 18.7071C13.4804 18.8946 13.7348 19 14 19H22.5C22.7652 19 23.0196 18.8946 23.2071 18.7071C23.3946 18.5196 23.5 18.2652 23.5 18C23.5 17.7348 23.3946 17.4804 23.2071 17.2929C23.0196 17.1054 22.7652 17 22.5 17Z" fill="white"/>
<path d="M9 15C8.3802 15.0007 7.77584 15.1934 7.26998 15.5515C6.76412 15.9096 6.3816 16.4156 6.175 17H1.5C1.23478 17 0.98043 17.1054 0.792893 17.2929C0.605357 17.4804 0.5 17.7348 0.5 18C0.5 18.2652 0.605357 18.5196 0.792893 18.7071C0.98043 18.8946 1.23478 19 1.5 19H6.175C6.35838 19.5187 6.68086 19.9769 7.10716 20.3247C7.53346 20.6724 8.04717 20.8962 8.59212 20.9717C9.13707 21.0471 9.69226 20.9712 10.197 20.7523C10.7017 20.5335 11.1365 20.18 11.4539 19.7306C11.7713 19.2813 11.959 18.7533 11.9965 18.2044C12.0339 17.6556 11.9198 17.107 11.6665 16.6186C11.4131 16.1303 11.0304 15.721 10.5601 15.4355C10.0899 15.15 9.55014 14.9994 9 15ZM9 19C8.80222 19 8.60888 18.9414 8.44443 18.8315C8.27998 18.7216 8.15181 18.5654 8.07612 18.3827C8.00043 18.2 7.98063 17.9989 8.01921 17.8049C8.0578 17.6109 8.15304 17.4327 8.29289 17.2929C8.43275 17.153 8.61093 17.0578 8.80491 17.0192C8.99889 16.9806 9.19996 17.0004 9.38268 17.0761C9.56541 17.1518 9.72159 17.28 9.83147 17.4444C9.94135 17.6089 10 17.8022 10 18C10 18.2652 9.89464 18.5196 9.70711 18.7071C9.51957 18.8946 9.26522 19 9 19Z" fill="white"/>
</svg>
