<svg width="10" height="11" viewBox="0 0 10 11" fill="none" xmlns="http://www.w3.org/2000/svg">
<path d="M1 3.07143V9.48345L3.53238 8.39815L6.5324 9.89815L9 8.8406V2.42857L9.6515 2.14935C9.77845 2.09496 9.9254 2.15374 9.9798 2.28065C9.9931 2.31177 10 2.34528 10 2.37913V9.5L6.5 11L3.5 9.5L0.34848 10.8506C0.22157 10.9051 0.074605 10.8462 0.020215 10.7193C0.00687503 10.6882 0 10.6547 0 10.6208V3.5L1 3.07143ZM7.1213 5.6213L5 7.74265L2.87868 5.6213C1.70711 4.44975 1.70711 2.55025 2.87868 1.37868C4.05025 0.207107 5.94975 0.207107 7.1213 1.37868C8.2929 2.55025 8.2929 4.44975 7.1213 5.6213ZM5 6.32845L6.4142 4.91422C7.19525 4.13317 7.19525 2.86683 6.4142 2.08578C5.63315 1.30474 4.36685 1.30474 3.58578 2.08578C2.80474 2.86683 2.80474 4.13317 3.58578 4.91422L5 6.32845Z" fill="#2196F3"/>
</svg>
