<svg width="30" height="30" viewBox="0 0 30 30" fill="none" xmlns="http://www.w3.org/2000/svg">
<circle cx="15" cy="15" r="15" fill="#2196F3"/>
<path d="M14.4328 11.2936C14.9939 11.4028 15.5096 11.6767 15.9139 12.0802C16.3181 12.4837 16.5926 12.9984 16.702 13.5585M14.4328 9C15.5986 9.12926 16.6857 9.65033 17.5157 10.4776C18.3456 11.3049 18.869 12.3893 19 13.5527M18.4255 18.1284V19.8486C18.4262 20.0083 18.3934 20.1663 18.3293 20.3126C18.2652 20.459 18.1712 20.5903 18.0533 20.6983C17.9354 20.8062 17.7962 20.8884 17.6446 20.9396C17.4931 20.9907 17.3325 21.0097 17.1731 20.9953C15.4053 20.8036 13.7072 20.2007 12.2153 19.235C10.8272 18.3547 9.65038 17.1801 8.76835 15.7947C7.79745 14.2988 7.19324 12.5957 7.00466 10.8234C6.99031 10.6648 7.00919 10.505 7.0601 10.3541C7.11102 10.2033 7.19285 10.0646 7.30039 9.94703C7.40793 9.82944 7.53883 9.73549 7.68474 9.67117C7.83065 9.60684 7.98838 9.57354 8.1479 9.57339H9.87136C10.1502 9.57065 10.4205 9.66919 10.6319 9.85064C10.8432 10.0321 10.9813 10.2841 11.0203 10.5596C11.0931 11.1101 11.228 11.6506 11.4225 12.1709C11.4998 12.3761 11.5165 12.5991 11.4707 12.8136C11.4249 13.028 11.3184 13.2248 11.164 13.3807L10.4344 14.1089C11.2522 15.5444 12.443 16.733 13.8813 17.5493L14.6109 16.8211C14.7671 16.6669 14.9643 16.5607 15.1791 16.5149C15.394 16.4692 15.6175 16.4859 15.8231 16.563C16.3443 16.7572 16.8858 16.8918 17.4374 16.9644C17.7165 17.0037 17.9713 17.144 18.1535 17.3586C18.3357 17.5732 18.4325 17.8472 18.4255 18.1284Z" stroke="white" stroke-width="1.2" stroke-linecap="round" stroke-linejoin="round"/>
</svg>
